<svg xmlns="http://www.w3.org/2000/svg" width="418" height="150" viewBox="0 0 418 150" role="img" aria-label="Martin Aguirre (rondrft): 2,202 contributions, 41 current streak, 41 longest streak" font-family="ui-monospace, SFMono-Regular, 'SF Mono', Menlo, Consolas, 'Liberation Mono', monospace"><title>Martin Aguirre (rondrft): 2,202 contributions, 41 current streak, 41 longest streak</title><style>@keyframes sw0{from{transform:rotate(-135deg)}to{transform:rotate(66.91deg)}}.n0{transform-origin:55px 58.5px;animation:sw0 0.9s cubic-bezier(0.34, 1.4, 0.64, 1) both}@keyframes sw1{from{transform:rotate(-135deg)}to{transform:rotate(135deg)}}.n1{transform-origin:143.8px 58.5px;animation:sw1 0.9s cubic-bezier(0.34, 1.4, 0.64, 1) both}@keyframes sw2{from{transform:rotate(-135deg)}to{transform:rotate(135deg)}}.n2{transform-origin:235px 58.5px;animation:sw2 0.9s cubic-bezier(0.34, 1.4, 0.64, 1) both}@media (prefers-reduced-motion:reduce){.needle{animation:none}}</style><defs><pattern id="scanlines" width="4" height="4" patternUnits="userSpaceOnUse"><rect width="4" height="2" fill="#FFFFFF" opacity="0.05"/></pattern></defs><rect width="418" height="150" rx="6" fill="#000000"/><rect width="418" height="150" rx="6" fill="url(#scanlines)"/><rect x="12" y="12" width="394" height="126" rx="2" fill="none" stroke="#666666" stroke-width="0.5"/><circle cx="55" cy="58.5" r="26" fill="#121212" stroke="#999999" stroke-width="0.5" opacity="0.9"/><circle cx="55" cy="58.5" r="22" fill="none" stroke="#999999" stroke-width="4" pathLength="360" stroke-dasharray="2 8 2 8 2 8 2 8 2 8 2 8 2 8 2 8 2 8 2 8 2 8 2 8 2 8 2 8 2 8 2 8 2 8 2 8 2 8 2 8 2 8 2 8 2 8 2 8 2 8 2 8 2 8 2 88" transform="rotate(-225 55 58.5)" opacity="0.45"/><line x1="55" y1="58.5" x2="55" y2="39.5" stroke="#FFFFFF" stroke-width="2" stroke-linecap="round" transform="rotate(66.91 55 58.5)" class="needle n0"/><circle cx="55" cy="58.5" r="2.5" fill="#FFFFFF"/><text x="55" y="102.5" font-size="17" text-anchor="middle" fill="#FFFFFF">2,202</text><text x="55" y="114.5" font-size="8" text-anchor="middle" fill="#999999">contributions</text><circle cx="143.8" cy="58.5" r="26" fill="#121212" stroke="#999999" stroke-width="0.5" opacity="0.9"/><circle cx="143.8" cy="58.5" r="22" fill="none" stroke="#999999" stroke-width="4" pathLength="360" stroke-dasharray="2 8 2 8 2 8 2 8 2 8 2 8 2 8 2 8 2 8 2 8 2 8 2 8 2 8 2 8 2 8 2 8 2 8 2 8 2 8 2 8 2 8 2 8 2 8 2 8 2 8 2 8 2 8 2 88" transform="rotate(-225 143.8 58.5)" opacity="0.45"/><line x1="143.8" y1="58.5" x2="143.8" y2="39.5" stroke="#FFFFFF" stroke-width="2" stroke-linecap="round" transform="rotate(135 143.8 58.5)" class="needle n1"/><circle cx="143.8" cy="58.5" r="2.5" fill="#FFFFFF"/><text x="143.8" y="102.5" font-size="17" text-anchor="middle" fill="#FFFFFF">41</text><text x="143.8" y="114.5" font-size="8" text-anchor="middle" fill="#999999">current streak</text><circle cx="235" cy="58.5" r="26" fill="#121212" stroke="#999999" stroke-width="0.5" opacity="0.9"/><circle cx="235" cy="58.5" r="22" fill="none" stroke="#999999" stroke-width="4" pathLength="360" stroke-dasharray="2 8 2 8 2 8 2 8 2 8 2 8 2 8 2 8 2 8 2 8 2 8 2 8 2 8 2 8 2 8 2 8 2 8 2 8 2 8 2 8 2 8 2 8 2 8 2 8 2 8 2 8 2 8 2 88" transform="rotate(-225 235 58.5)" opacity="0.45"/><line x1="235" y1="58.5" x2="235" y2="39.5" stroke="#FFFFFF" stroke-width="2" stroke-linecap="round" transform="rotate(135 235 58.5)" class="needle n2"/><circle cx="235" cy="58.5" r="2.5" fill="#FFFFFF"/><text x="235" y="102.5" font-size="17" text-anchor="middle" fill="#FFFFFF">41</text><text x="235" y="114.5" font-size="8" text-anchor="middle" fill="#999999">longest streak</text><text x="292.6" y="65" font-size="9" fill="#FFFFFF">java</text><rect x="320.6" y="60" width="46" height="5" rx="1" fill="#999999" opacity="0.22"/><rect x="320.6" y="60" width="46" height="5" rx="1" fill="#b07219"/><text x="372.6" y="65" font-size="9" fill="#999999">41%</text><text x="292.6" y="78" font-size="9" fill="#FFFFFF">kt</text><rect x="320.6" y="73" width="46" height="5" rx="1" fill="#999999" opacity="0.22"/><rect x="320.6" y="73" width="39.29" height="5" rx="1" fill="#A97BFF"/><text x="372.6" y="78" font-size="9" fill="#999999">30%</text><text x="292.6" y="91" font-size="9" fill="#FFFFFF">ts</text><rect x="320.6" y="86" width="46" height="5" rx="1" fill="#999999" opacity="0.22"/><rect x="320.6" y="86" width="38.1" height="5" rx="1" fill="#3178c6"/><text x="372.6" y="91" font-size="9" fill="#999999">28%</text></svg>