<svg xmlns="http://www.w3.org/2000/svg" width="519" height="144" viewBox="0 0 519 144" role="img" aria-label="Martin Aguirre (rondrft): 2,179 contributions, 40 current streak, 40 longest streak" font-family="ui-monospace, SFMono-Regular, 'SF Mono', Menlo, Consolas, 'Liberation Mono', monospace"><title>Martin Aguirre (rondrft): 2,179 contributions, 40 current streak, 40 longest streak</title><style>@keyframes wipe{from{transform:translateX(-475px)}to{transform:translateX(0)}}.wipe{animation:wipe 424ms steps(53,end) both}@media (prefers-reduced-motion:reduce){.wipe{animation:none}}</style><defs><pattern id="scanlines" width="4" height="4" patternUnits="userSpaceOnUse"><rect width="4" height="2" fill="#C77DFF" opacity="0.05"/></pattern></defs><rect width="519" height="144" rx="6" fill="#050B14"/><rect width="519" height="144" rx="6" fill="url(#scanlines)"/><rect x="12" y="12" width="495" height="120" rx="2" fill="none" stroke="#1B4F72" stroke-width="0.5"/><text x="22" y="35" font-size="13" fill="#BFE4F5">2,179</text><text x="66" y="35" font-size="9" fill="#3A7CA5">contributions</text><text x="152.2" y="35" font-size="13" fill="#BFE4F5">40</text><text x="172.8" y="35" font-size="9" fill="#3A7CA5">current streak</text><text x="264.4" y="35" font-size="13" fill="#BFE4F5">40</text><text x="285" y="35" font-size="9" fill="#3A7CA5">longest streak</text><text x="40" y="55" font-size="10" fill="#3A7CA5">Aug</text><text x="76" y="55" font-size="10" fill="#3A7CA5">Sep</text><text x="121" y="55" font-size="10" fill="#3A7CA5">Oct</text><text x="157" y="55" font-size="10" fill="#3A7CA5">Nov</text><text x="193" y="55" font-size="10" fill="#3A7CA5">Dec</text><text x="238" y="55" font-size="10" fill="#3A7CA5">Jan</text><text x="274" y="55" font-size="10" fill="#3A7CA5">Feb</text><text x="310" y="55" font-size="10" fill="#3A7CA5">Mar</text><text x="355" y="55" font-size="10" fill="#3A7CA5">Apr</text><text x="391" y="55" font-size="10" fill="#3A7CA5">May</text><text x="427" y="55" font-size="10" fill="#3A7CA5">Jun</text><text x="472" y="55" font-size="10" fill="#3A7CA5">Jul</text><defs><rect id="d" width="7" height="7" rx="1.5"/><clipPath id="wipe"><rect class="wipe" width="475" height="61"/></clipPath></defs><g transform="translate(22 61)"><rect width="475" height="61" fill="url(#empty)"/><g clip-path="url(#wipe)"><g fill="#1f4b5b"><use href="#d" x="0" y="0"/><use href="#d" x="63" y="36"/><use href="#d" x="63" y="45"/><use href="#d" x="72" y="0"/><use href="#d" x="72" y="9"/><use href="#d" x="72" y="27"/><use href="#d" x="72" y="54"/><use href="#d" x="81" y="0"/><use href="#d" x="81" y="9"/><use href="#d" x="81" y="27"/><use href="#d" x="81" y="36"/><use href="#d" x="81" y="45"/><use href="#d" x="90" y="9"/><use href="#d" x="90" y="27"/><use href="#d" x="90" y="45"/><use href="#d" x="99" y="9"/><use href="#d" x="270" y="9"/><use href="#d" x="333" y="36"/><use href="#d" x="342" y="54"/><use href="#d" x="351" y="0"/><use href="#d" x="351" y="18"/><use href="#d" x="369" y="36"/><use href="#d" x="450" y="54"/><use href="#d" x="459" y="27"/><use href="#d" x="468" y="0"/><use href="#d" x="468" y="18"/></g><g fill="#31798e"><use href="#d" x="54" y="54"/><use href="#d" x="63" y="9"/><use href="#d" x="63" y="27"/><use href="#d" x="72" y="36"/><use href="#d" x="81" y="18"/><use href="#d" x="90" y="36"/><use href="#d" x="90" y="54"/><use href="#d" x="99" y="18"/><use href="#d" x="99" y="27"/><use href="#d" x="99" y="36"/><use href="#d" x="99" y="54"/><use href="#d" x="351" y="9"/><use href="#d" x="351" y="27"/><use href="#d" x="351" y="36"/><use href="#d" x="369" y="27"/><use href="#d" x="396" y="45"/><use href="#d" x="405" y="0"/><use href="#d" x="405" y="9"/><use href="#d" x="405" y="45"/><use href="#d" x="405" y="54"/><use href="#d" x="414" y="9"/><use href="#d" x="432" y="0"/><use href="#d" x="432" y="18"/><use href="#d" x="441" y="9"/><use href="#d" x="468" y="9"/></g><g fill="#43a7c1"><use href="#d" x="63" y="0"/><use href="#d" x="63" y="18"/><use href="#d" x="72" y="45"/><use href="#d" x="108" y="0"/><use href="#d" x="396" y="36"/><use href="#d" x="396" y="54"/><use href="#d" x="405" y="18"/><use href="#d" x="405" y="27"/><use href="#d" x="414" y="18"/><use href="#d" x="414" y="36"/><use href="#d" x="414" y="54"/><use href="#d" x="423" y="0"/><use href="#d" x="423" y="18"/><use href="#d" x="423" y="36"/><use href="#d" x="432" y="45"/><use href="#d" x="432" y="54"/><use href="#d" x="450" y="36"/><use href="#d" x="450" y="45"/><use href="#d" x="459" y="0"/><use href="#d" x="459" y="9"/><use href="#d" x="459" y="36"/><use href="#d" x="459" y="54"/><use href="#d" x="468" y="54"/></g><g fill="#84a4ee"><use href="#d" x="414" y="27"/><use href="#d" x="414" y="45"/><use href="#d" x="423" y="27"/><use href="#d" x="423" y="45"/><use href="#d" x="423" y="54"/><use href="#d" x="432" y="9"/><use href="#d" x="432" y="27"/><use href="#d" x="432" y="36"/><use href="#d" x="441" y="0"/><use href="#d" x="441" y="18"/><use href="#d" x="441" y="27"/><use href="#d" x="441" y="36"/><use href="#d" x="441" y="45"/><use href="#d" x="441" y="54"/><use href="#d" x="450" y="0"/><use href="#d" x="450" y="9"/><use href="#d" x="450" y="18"/><use href="#d" x="450" y="27"/><use href="#d" x="459" y="18"/><use href="#d" x="459" y="45"/><use href="#d" x="468" y="27"/><use href="#d" x="468" y="36"/><use href="#d" x="468" y="45"/></g></g></g><defs><pattern id="empty" width="9" height="9" patternUnits="userSpaceOnUse"><use href="#d" fill="#0c1d28"/></pattern></defs></svg>