<svg xmlns="http://www.w3.org/2000/svg" width="406" height="150" viewBox="0 0 406 150" role="img" aria-label="Martin Aguirre (rondrft): 2,179 contributions, 40 current streak, 40 longest streak" font-family="ui-monospace, SFMono-Regular, 'SF Mono', Menlo, Consolas, 'Liberation Mono', monospace"><title>Martin Aguirre (rondrft): 2,179 contributions, 40 current streak, 40 longest streak</title><defs><pattern id="scanlines" width="4" height="4" patternUnits="userSpaceOnUse"><rect width="4" height="2" fill="#C1432B" opacity="0.05"/></pattern></defs><rect width="406" height="150" rx="6" fill="#F4EDE1"/><rect width="406" height="150" rx="6" fill="url(#scanlines)"/><rect width="406" height="150" rx="6" fill="#e8e1d5"/><path d="M0 26V6a6 6 0 0 1 6 -6h394a6 6 0 0 1 6 6v20z" fill="#C1432B"/><text x="14" y="17" font-size="10" letter-spacing="1.5" fill="#eae3d7">PHOSPHOR STATS</text><text x="392" y="18" font-size="12" text-anchor="end" letter-spacing="1" fill="#eae3d7">RONDRFT</text><rect x="8" y="34" width="390" height="108" rx="2" fill="none" stroke="#D6C6AC" stroke-width="0.5"/><line x1="297.2" y1="32" x2="297.2" y2="144" stroke="#7A6A57" stroke-width="1" stroke-dasharray="2 3" opacity="0.5"/><circle cx="297.2" cy="26" r="4" fill="#F4EDE1"/><circle cx="297.2" cy="150" r="4" fill="#F4EDE1"/><text x="19.8" y="74" font-size="8" fill="#7A6A57">contributions</text><text x="19.8" y="100" font-size="26" fill="#2B2118">2,179</text><text x="123.8" y="74" font-size="8" fill="#7A6A57">current streak</text><text x="123.8" y="100" font-size="26" fill="#2B2118">40</text><text x="217" y="74" font-size="8" fill="#7A6A57">longest streak</text><text x="217" y="100" font-size="26" fill="#2B2118">40</text><text x="348.2" y="56" font-size="8" text-anchor="middle" fill="#7A6A57">current streak</text><text x="348.2" y="90" font-size="34" text-anchor="middle" fill="#C1432B">40</text><g fill="#7A6A57"><rect x="310.2" y="102" width="3" height="22"/><rect x="315.2" y="102" width="3" height="22"/><rect x="320.2" y="102" width="2" height="22"/><rect x="324.2" y="102" width="3" height="22"/><rect x="329.2" y="102" width="3" height="22"/><rect x="333.2" y="102" width="2" height="22"/><rect x="336.2" y="102" width="3" height="22"/><rect x="340.2" y="102" width="2" height="22"/><rect x="343.2" y="102" width="3" height="22"/><rect x="348.2" y="102" width="3" height="22"/><rect x="352.2" y="102" width="2" height="22"/><rect x="356.2" y="102" width="1" height="22"/><rect x="358.2" y="102" width="1" height="22"/><rect x="361.2" y="102" width="3" height="22"/><rect x="365.2" y="102" width="2" height="22"/><rect x="368.2" y="102" width="1" height="22"/><rect x="370.2" y="102" width="3" height="22"/><rect x="375.2" y="102" width="1" height="22"/><rect x="377.2" y="102" width="1" height="22"/><rect x="380.2" y="102" width="1" height="22"/></g><text x="20" y="137" font-size="8" fill="#7A6A57">since 2023</text><text x="287.2" y="137" font-size="8" text-anchor="end" font-family="ui-monospace, SFMono-Regular, 'SF Mono', Menlo, Consolas, 'Liberation Mono', monospace" fill="#7A6A57">java 41%   kt 30%   ts 28%</text></svg>